# xmcd
#
# Track frame offsets:
# 150
# 13594
# 27368
# 41406
# 56853
# 71773
# 86689
# 98298
# 110246
# 128465
# 141949
# 155550
# 169108
# 183040
# 197174
# 210850
# 222269
# 238746
# 260415
# 277259
# 296677
# 310053
# 321499
# 333940
#
# Disc length: 4672 seconds
#
#
# Revision: 0
# Processed by: cddbd v1.5.1PL2 Copyright (c) Steve Scherf et al.
# Submitted via: FreeRIP 2.944 
#
DISCID=64123e18
DTITLE=Salvatore Adamo - 24 Grandes Exitos en Español
DYEAR=1900
DGENRE=
TTITLE0=Mis manos en tu cintura
TTITLE1=Mi gran noche
TTITLE2=Quiero
TTITLE3=Pequeña felicidad
TTITLE4=Nuestra novela
TTITLE5=La noche
TTITLE6=Tu nombre
TTITLE7=Porque yo quiero
TTITLE8=Marie la mer
TTITLE9=El anuncio
TTITLE10=Yo te ofrezco
TTITLE11=El tiempo se detiene
TTITLE12=Un mechón de tus cabellos
TTITLE13=Arroyo de mi infancia
TTITLE14=Ella
TTITLE15=Vivir
TTITLE16=Era una linda flor
TTITLE17=Inch'allah
TTITLE18=En bandolera
TTITLE19=Es mi vida
TTITLE20=Una lágrima en las nubes
TTITLE21=Como las rosas
TTITLE22=Nada que hacer
TTITLE23=Mañana en la luna
EXTD=1993 EMI Odeon Chilena S. A. (Chile]\n\n(P) 1991 Compilado EMI Belgium N. V.\n\nEMI 7 243828236 4
EXTT0=
EXTT1=
EXTT2=
EXTT3=
EXTT4=
EXTT5=
EXTT6=
EXTT7=
EXTT8=
EXTT9=
EXTT10=
EXTT11=
EXTT12=
EXTT13=
EXTT14=
EXTT15=
EXTT16=
EXTT17=
EXTT18=
EXTT19=
EXTT20=
EXTT21=
EXTT22=
EXTT23=
PLAYORDER=
